<?xml version="1.0" standalone="no"?>
<!DOCTYPE svg PUBLIC "-//W3C//DTD SVG 20010904//EN"
 "http://www.w3.org/TR/2001/REC-SVG-20010904/DTD/svg10.dtd">
<svg version="1.0" xmlns="http://www.w3.org/2000/svg"
 width="300.000000pt" height="300.000000pt" viewBox="0 0 300.000000 300.000000"
 preserveAspectRatio="xMidYMid meet">
<metadata>
Created by potrace 1.10, written by Peter Selinger 2001-2011
</metadata>
<g transform="translate(0.000000,300.000000) scale(0.100000,-0.100000)"
fill="#000000" stroke="none">
<path d="M1040 2889 c-113 -19 -250 -109 -295 -192 l-19 -35 30 -34 c58 -66
77 -106 82 -178 2 -38 -1 -82 -7 -103 -31 -93 -126 -169 -228 -182 -76 -9
-151 16 -213 72 -26 23 -57 43 -69 43 -33 0 -137 -109 -170 -180 -40 -84 -56
-181 -42 -256 13 -68 29 -84 85 -84 82 -1 178 -69 217 -154 25 -55 25 -157 0
-212 -42 -93 -121 -151 -218 -161 -71 -8 -84 -27 -85 -125 0 -88 14 -144 54
-220 36 -67 127 -158 158 -158 12 0 39 13 59 28 55 43 99 57 176 56 77 -1 112
-15 170 -66 52 -45 77 -101 83 -183 4 -65 2 -75 -32 -139 -43 -83 -44 -104 -8
-147 74 -89 170 -144 281 -162 127 -19 170 3 183 95 20 151 123 248 263 248
139 0 264 -117 265 -248 0 -57 29 -86 94 -95 116 -16 267 36 355 122 61 60 72
92 42 129 -80 100 -105 175 -89 266 15 77 69 150 143 189 63 34 174 30 245 -9
29 -16 62 -41 73 -56 33 -45 65 -38 132 28 95 94 144 230 130 361 -8 74 -23
93 -73 93 -86 0 -192 81 -227 173 -25 65 -17 160 19 221 47 80 139 136 222
136 48 0 58 26 58 140 -1 132 -32 206 -124 302 -75 78 -78 78 -147 18 -144
-125 -367 -62 -428 120 -32 96 -10 184 67 268 36 39 38 44 25 68 -7 13 -37 50
-67 80 -97 99 -241 147 -371 124 -35 -7 -70 -16 -76 -22 -7 -6 -13 -28 -13
-50 0 -50 -42 -140 -82 -173 -61 -51 -108 -69 -183 -68 -141 0 -246 91 -262
224 -3 28 -13 59 -22 69 -20 24 -88 32 -161 19z m120 -39 c11 -6 23 -31 30
-62 7 -29 17 -62 23 -73 21 -43 62 -104 70 -105 5 0 21 -8 35 -19 82 -57 203
-64 297 -17 93 46 137 102 161 199 15 58 20 67 47 76 104 37 273 -14 368 -110
27 -27 49 -57 49 -65 0 -9 -15 -34 -33 -57 -95 -118 -91 -268 9 -386 36 -44
98 -77 172 -95 56 -13 69 -13 115 1 64 19 93 34 132 67 17 14 37 26 46 26 26
0 108 -95 136 -158 19 -40 28 -79 31 -134 7 -117 4 -123 -74 -142 -146 -37
-234 -149 -234 -299 0 -64 42 -178 64 -174 6 1 10 -7 8 -18 -2 -14 6 -24 25
-33 16 -7 44 -21 63 -32 19 -11 53 -22 74 -26 67 -12 78 -32 74 -133 -2 -74
-8 -96 -36 -153 -54 -111 -143 -187 -169 -145 -14 23 -77 64 -126 82 -41 15
-48 22 -43 39 4 15 -3 12 -24 -14 -16 -19 -30 -30 -30 -24 0 5 6 16 13 23 10
11 8 12 -8 3 -11 -5 -40 -13 -65 -17 -88 -15 -183 -97 -218 -190 -21 -55 -26
-105 -11 -105 8 -1 1 -12 -16 -26 -17 -15 -22 -24 -12 -20 13 4 21 -2 28 -22
29 -72 42 -97 70 -132 24 -29 29 -44 24 -62 -11 -36 -83 -97 -155 -132 -58
-28 -74 -31 -158 -31 -103 0 -107 2 -117 70 -10 67 -57 164 -80 166 -11 0 -14
3 -7 6 16 6 -49 54 -107 76 -95 38 -190 25 -287 -40 -61 -41 -99 -107 -115
-202 -5 -30 -15 -61 -23 -69 -18 -19 -112 -17 -180 2 -94 28 -216 123 -216
170 0 10 13 46 30 80 16 33 31 76 32 95 1 18 8 36 15 38 10 4 8 10 -7 23 -20
17 -28 36 -11 25 24 -14 -30 112 -66 155 -39 47 -123 92 -178 95 -5 0 -15 4
-21 8 -22 13 -134 -15 -190 -49 -31 -19 -62 -34 -68 -34 -18 0 -81 63 -111
109 -41 66 -64 150 -62 226 2 76 12 88 78 99 186 30 299 246 217 416 -45 94
-113 147 -222 172 -72 16 -80 31 -74 140 4 64 11 90 42 152 35 72 111 156 141
156 6 0 31 -16 54 -37 24 -20 70 -46 103 -58 50 -18 69 -20 116 -13 98 15 191
71 231 139 36 61 43 83 44 157 1 83 -15 127 -68 190 -37 44 -32 71 23 124 52
51 105 82 172 103 53 16 134 19 160 5z"/>
<path d="M1460 1977 c-3 -3 -23 -6 -45 -8 -22 -2 -47 -6 -55 -10 -8 -4 -44
-22 -80 -39 -109 -53 -199 -163 -241 -295 -18 -56 -16 -189 4 -255 17 -58 75
-154 121 -202 72 -75 190 -127 306 -135 198 -14 388 108 467 299 22 53 26 79
27 168 1 97 -2 111 -32 181 -54 127 -158 225 -284 268 -56 19 -178 37 -188 28z
m201 -68 c185 -72 300 -274 270 -470 -55 -352 -485 -499 -739 -251 -110 107
-157 254 -127 397 57 272 339 426 596 324z"/>
</g>
</svg>
